<svg xmlns="http://www.w3.org/2000/svg" viewBox="0 0 1718.78 970.16"><defs><style>.cls-1{fill:#ff0;stroke:#ff0;stroke-miterlimit:10;}</style></defs><title>Element 1</title><g id="Ebene_2" data-name="Ebene 2"><g id="Ebene_1-2" data-name="Ebene 1"><path class="cls-1" d="M106.93,379.57A11.08,11.08,0,1,1,118,368.5,11.08,11.08,0,0,1,106.93,379.57Zm0-20.94a9.87,9.87,0,1,0,9.87,9.87A9.88,9.88,0,0,0,106.93,358.63Z"/><path class="cls-1" d="M106.94,382.23A13.73,13.73,0,1,1,120.22,365h0a13.73,13.73,0,0,1-9.81,16.76A13.89,13.89,0,0,1,106.94,382.23Zm0-26.26a12.52,12.52,0,0,0-12.11,15.7A12.52,12.52,0,1,0,106.93,356Z"/><path class="cls-1" d="M108.19,399a35.44,35.44,0,0,1-5.19-.53l-.36-.06-2.39-7.17-6.53-2.72-5.45,3.64-5-5,2.69-8.05-3-4.86-6.12-1.53V365l7.47-3.29,1.63-6-3.05-5.49,5.35-5.35,6.63,3.31,5.68-2.43,2.11-6.95h7.66l2.42,6.66,5.71,2.72,6.29-3,5.67,5-3.34,6.67c.83,2.18,1.75,4.52,2.09,5.3a61.54,61.54,0,0,1,6.91,2.36l.39.15V372l-7.22,2.71-2.17,5.42,3,6.63-5.31,5.31-6.65-3c-1.8.64-4.53,1.67-5.38,2.12a47,47,0,0,0-2,6.67.9.9,0,0,1-.33.69A4,4,0,0,1,108.19,399Zm-4.64-1.66c2.51.39,5.33.6,6,.34a55.31,55.31,0,0,1,2.08-7.09l.07-.19.17-.11a58.52,58.52,0,0,1,6-2.43l.23-.08,6.33,2.88,4.13-4.13-2.88-6.34,2.55-6.39,6.94-2.6v-5.66c-2.72-1-5.64-2-6.33-2.18h0c-.59.11-.59.11-3-6.29l-.09-.25,3.15-6.31-4.37-3.86-6.09,2.91-6.68-3.18-2.3-6.33h-5.92l-2,6.63-6.71,2.87-6.35-3.17-4.1,4.09,2.85,5.13-1.91,7L78,365.79v5.92l5.69,1.43,3.52,5.76-2.63,7.87,3.81,3.82,5.17-3.45,7.63,3.18Z"/><path class="cls-1" d="M149.08,417.85a7,7,0,1,1,7-7A7,7,0,0,1,149.08,417.85Zm0-12.75a5.78,5.78,0,1,0,5.77,5.78A5.78,5.78,0,0,0,149.08,405.1Z"/><path class="cls-1" d="M149.07,419.47a8.59,8.59,0,1,1,8.32-10.77h0a8.59,8.59,0,0,1-8.32,10.77Zm0-16a7.5,7.5,0,0,0-1.87.24,7.4,7.4,0,1,0,1.87-.24Z"/><path class="cls-1" d="M149.81,429.66a20.12,20.12,0,0,1-3.16-.33l-.36-.05-1.47-4.4-3.75-1.56-3.38,2.25-3.3-3.31,1.64-4.94-1.7-2.78-3.81-1v-5l4.59-2,.93-3.44-1.89-3.41,3.5-3.5,4.09,2,3.25-1.39,1.31-4.29h5l1.49,4.11,3.29,1.57,3.87-1.85,3.7,3.27-2.06,4.13c.46,1.2.95,2.46,1.18,3,.58.14,1.72.53,4.12,1.43l.39.14v4.79l-4.45,1.67-1.24,3.1,1.86,4.1L160,425.51l-4.11-1.87c-1.08.39-2.53.94-3.06,1.2a27.92,27.92,0,0,0-1.15,3.9.77.77,0,0,1-.29.6A2.54,2.54,0,0,1,149.81,429.66Zm-2.61-1.46a14.83,14.83,0,0,0,3.28.23,36.94,36.94,0,0,1,1.26-4.2l.07-.19.17-.11a32.17,32.17,0,0,1,3.72-1.5l.23-.09,3.79,1.73,2.28-2.28L160.27,418l1.63-4.07,4.17-1.57v-3.11c-1.54-.57-3.16-1.14-3.62-1.25-.54.09-.56,0-2.08-4l-.1-.25,1.89-3.77-2.41-2.12-3.67,1.74-4.25-2-1.38-3.79h-3.26l-1.21,4-4.28,1.84-3.81-1.91-2.25,2.25,1.7,3.05-1.22,4.46-4.39,1.93v3.27l3.37.84,2.25,3.68-1.58,4.76,2.08,2.08,3.08-2.06,4.86,2Z"/><path class="cls-1" d="M1159.93,131.57A11.08,11.08,0,1,1,1171,120.5,11.08,11.08,0,0,1,1159.93,131.57Zm0-20.94a9.87,9.87,0,1,0,9.87,9.87A9.88,9.88,0,0,0,1159.93,110.63Z"/><path class="cls-1" d="M1159.94,134.23A13.73,13.73,0,1,1,1173.22,117h0a13.73,13.73,0,0,1-9.81,16.76A13.89,13.89,0,0,1,1159.94,134.23Zm0-26.26a12.52,12.52,0,0,0-12.11,15.7,12.52,12.52,0,1,0,12.11-15.7Z"/><path class="cls-1" d="M1161.19,151a35.44,35.44,0,0,1-5.19-.53l-.36-.06-2.39-7.17-6.53-2.72-5.45,3.64-5-5,2.69-8-3-4.86-6.12-1.53V117l7.47-3.29,1.63-6-3-5.49,5.35-5.35,6.63,3.31,5.68-2.43,2.11-7h7.66l2.42,6.66,5.71,2.72,6.29-3,5.67,5-3.34,6.67c.83,2.18,1.75,4.52,2.09,5.3a61.54,61.54,0,0,1,6.91,2.36l.39.15V124l-7.22,2.71-2.17,5.42,3,6.63-5.31,5.31-6.65-3c-1.8.64-4.53,1.67-5.38,2.12a47,47,0,0,0-2,6.67.9.9,0,0,1-.33.69A4,4,0,0,1,1161.19,151Zm-4.64-1.66c2.51.39,5.33.6,6,.34a55.31,55.31,0,0,1,2.08-7.09l.07-.19.17-.11a58.52,58.52,0,0,1,6-2.43l.23-.08,6.33,2.88,4.13-4.13-2.88-6.34,2.55-6.39,6.94-2.6v-5.66c-2.72-1-5.64-2-6.33-2.18h0c-.59.11-.59.11-3-6.29l-.09-.25,3.15-6.31-4.37-3.86-6.09,2.91-6.68-3.18-2.3-6.33h-5.92l-2,6.63-6.71,2.87-6.35-3.17-4.1,4.09,2.85,5.13-1.91,7-7.28,3.2v5.92l5.69,1.43,3.52,5.76-2.63,7.87,3.81,3.82,5.17-3.45,7.63,3.18Z"/><path class="cls-1" d="M718.93,876.57A11.08,11.08,0,1,1,730,865.5,11.08,11.08,0,0,1,718.93,876.57Zm0-20.94a9.87,9.87,0,1,0,9.87,9.87A9.88,9.88,0,0,0,718.93,855.63Z"/><path class="cls-1" d="M718.94,879.23A13.73,13.73,0,1,1,732.22,862h0a13.73,13.73,0,0,1-9.81,16.76A13.89,13.89,0,0,1,718.94,879.23Zm0-26.26a12.52,12.52,0,0,0-12.11,15.7A12.52,12.52,0,1,0,718.93,853Z"/><path class="cls-1" d="M720.19,896a35.44,35.44,0,0,1-5.19-.53l-.36-.06-2.39-7.17-6.53-2.72-5.45,3.64-5-5,2.69-8.05-3-4.86-6.12-1.53V862l7.47-3.29,1.63-6-3-5.49,5.35-5.35,6.63,3.31,5.68-2.43,2.11-6.95h7.66l2.42,6.66,5.71,2.72,6.29-3,5.67,5-3.34,6.67c.83,2.18,1.75,4.52,2.09,5.3a61.54,61.54,0,0,1,6.91,2.36l.39.15V869l-7.22,2.71-2.17,5.42,3,6.63-5.31,5.31-6.65-3c-1.8.64-4.53,1.67-5.38,2.12a47,47,0,0,0-2,6.67.9.9,0,0,1-.33.69A4,4,0,0,1,720.19,896Zm-4.64-1.66c2.51.39,5.33.6,6,.34a55.31,55.31,0,0,1,2.08-7.09l.07-.19.17-.11a58.52,58.52,0,0,1,6-2.43l.23-.08,6.33,2.88,4.13-4.13-2.88-6.34,2.55-6.39,6.94-2.6v-5.66c-2.72-1-5.64-2-6.33-2.18h0c-.59.11-.59.11-3-6.29l-.09-.25,3.15-6.31-4.37-3.86-6.09,2.91-6.68-3.18-2.3-6.33h-5.92l-2,6.63-6.71,2.87-6.35-3.17-4.1,4.09,2.85,5.13-1.91,7-7.28,3.2v5.92l5.69,1.43,3.52,5.76-2.63,7.87,3.81,3.82,5.17-3.45,7.63,3.18Z"/><path class="cls-1" d="M1202.08,169.85a7,7,0,1,1,7-7A7,7,0,0,1,1202.08,169.85Zm0-12.75a5.78,5.78,0,1,0,5.77,5.78A5.78,5.78,0,0,0,1202.08,157.1Z"/><path class="cls-1" d="M1202.07,171.47a8.59,8.59,0,1,1,8.32-10.77h0a8.59,8.59,0,0,1-8.32,10.77Zm0-16a7.5,7.5,0,0,0-1.87.24,7.4,7.4,0,1,0,1.87-.24Z"/><path class="cls-1" d="M1202.81,181.66a20.12,20.12,0,0,1-3.16-.33l-.36-.05-1.47-4.4-3.75-1.56-3.38,2.25-3.3-3.31,1.64-4.94-1.7-2.78-3.81-.95v-5l4.59-2,.93-3.44-1.89-3.41,3.5-3.5,4.09,2,3.25-1.39,1.31-4.29h5l1.49,4.11,3.29,1.57,3.87-1.85,3.7,3.27-2.06,4.13c.46,1.2,1,2.46,1.18,3,.58.14,1.72.53,4.12,1.43l.39.14v4.79l-4.45,1.67-1.24,3.1,1.86,4.1-3.47,3.46-4.11-1.87c-1.08.39-2.53.94-3.06,1.2a27.92,27.92,0,0,0-1.15,3.9.77.77,0,0,1-.29.6A2.54,2.54,0,0,1,1202.81,181.66Zm-2.61-1.46a14.83,14.83,0,0,0,3.28.23,36.94,36.94,0,0,1,1.26-4.2l.07-.19.17-.11a32.17,32.17,0,0,1,3.72-1.5l.23-.09,3.79,1.73,2.28-2.28-1.73-3.81,1.63-4.07,4.17-1.57v-3.11c-1.54-.57-3.16-1.14-3.62-1.25-.54.09-.56,0-2.08-4l-.1-.25,1.89-3.77-2.41-2.12-3.67,1.74-4.25-2-1.38-3.79h-3.26l-1.21,4-4.28,1.84-3.81-1.91-2.25,2.25,1.7,3.05-1.22,4.46-4.39,1.93v3.27l3.37.84,2.25,3.68-1.58,4.76,2.08,2.08,3.08-2.06,4.86,2Z"/><path class="cls-1" d="M1700.08,47.85a7,7,0,1,1,7-7A7,7,0,0,1,1700.08,47.85Zm0-12.75a5.78,5.78,0,1,0,5.77,5.78A5.78,5.78,0,0,0,1700.08,35.1Z"/><path class="cls-1" d="M1700.07,49.47a8.59,8.59,0,1,1,8.32-10.77h0a8.59,8.59,0,0,1-8.32,10.77Zm0-16a7.5,7.5,0,0,0-1.87.24,7.4,7.4,0,1,0,1.87-.24Z"/><path class="cls-1" d="M1700.81,59.66a20.12,20.12,0,0,1-3.16-.33l-.36,0-1.47-4.4-3.75-1.56-3.38,2.25-3.3-3.31,1.64-4.94-1.7-2.78-3.81-.95v-5l4.59-2,.93-3.44-1.89-3.41,3.5-3.5,4.09,2,3.25-1.39,1.31-4.29h5l1.49,4.11,3.29,1.57,3.87-1.85,3.7,3.27-2.06,4.13c.46,1.2,1,2.46,1.18,3,.58.14,1.72.53,4.12,1.43l.39.14v4.79l-4.45,1.67-1.24,3.1,1.86,4.1L1711,55.51l-4.11-1.87c-1.08.39-2.53.94-3.06,1.2a27.92,27.92,0,0,0-1.15,3.9.77.77,0,0,1-.29.6A2.54,2.54,0,0,1,1700.81,59.66Zm-2.61-1.46a14.83,14.83,0,0,0,3.28.23,36.94,36.94,0,0,1,1.26-4.2l.07-.19.17-.11a32.17,32.17,0,0,1,3.72-1.5l.23-.09,3.79,1.73,2.28-2.28L1711.27,48l1.63-4.07,4.17-1.57V39.23c-1.54-.57-3.16-1.14-3.62-1.25-.54.09-.56,0-2.08-4l-.1-.25,1.89-3.77-2.41-2.12-3.67,1.74-4.25-2-1.38-3.79h-3.26l-1.21,4-4.28,1.84-3.81-1.91-2.25,2.25,1.7,3.05-1.22,4.46-4.39,1.93v3.27l3.37.84,2.25,3.68-1.58,4.76,2.08,2.08,3.08-2.06,4.86,2Z"/><path class="cls-1" d="M890.08,434.85a7,7,0,1,1,7-7A7,7,0,0,1,890.08,434.85Zm0-12.75a5.78,5.78,0,1,0,5.77,5.78A5.78,5.78,0,0,0,890.08,422.1Z"/><path class="cls-1" d="M890.07,436.47a8.59,8.59,0,1,1,8.32-10.77h0a8.59,8.59,0,0,1-8.32,10.77Zm0-16a7.5,7.5,0,0,0-1.87.24,7.4,7.4,0,1,0,1.87-.24Z"/><path class="cls-1" d="M890.81,446.66a20.12,20.12,0,0,1-3.16-.33l-.36-.05-1.47-4.4-3.75-1.56-3.38,2.25-3.3-3.31,1.64-4.94-1.7-2.78-3.81-1v-5l4.59-2,.93-3.44-1.89-3.41,3.5-3.5,4.09,2,3.25-1.39,1.31-4.29h5l1.49,4.11,3.29,1.57,3.87-1.85,3.7,3.27-2.06,4.13c.46,1.2.95,2.46,1.18,3,.58.14,1.72.53,4.12,1.43l.39.14v4.79l-4.45,1.67-1.24,3.1,1.86,4.1L901,442.51l-4.11-1.87c-1.08.39-2.53.94-3.06,1.2a27.92,27.92,0,0,0-1.15,3.9.77.77,0,0,1-.29.6A2.54,2.54,0,0,1,890.81,446.66Zm-2.61-1.46a14.83,14.83,0,0,0,3.28.23,36.94,36.94,0,0,1,1.26-4.2l.07-.19.17-.11a32.17,32.17,0,0,1,3.72-1.5l.23-.09,3.79,1.73,2.28-2.28L901.27,435l1.63-4.07,4.17-1.57v-3.11c-1.54-.57-3.16-1.14-3.62-1.25-.54.09-.56,0-2.08-4l-.1-.25,1.89-3.77-2.41-2.12-3.67,1.74-4.25-2-1.38-3.79h-3.26l-1.21,4-4.28,1.84-3.81-1.91-2.25,2.25,1.7,3.05-1.22,4.46-4.39,1.93v3.27l3.37.84,2.25,3.68-1.58,4.76,2.08,2.08,3.08-2.06,4.86,2Z"/><polygon class="cls-1" points="342.21 48.5 291.79 48.5 291.79 47.6 341.31 47.6 341.31 6.71 273.89 6.71 273.89 23.95 272.98 23.95 272.98 5.81 342.21 5.81 342.21 48.5"/><polygon class="cls-1" points="281.39 48.5 272.98 48.5 272.98 37.22 273.89 37.22 273.89 47.6 281.39 47.6 281.39 48.5"/><path class="cls-1" d="M307.93,34.57a6.42,6.42,0,1,1,6.42-6.42A6.43,6.43,0,0,1,307.93,34.57Zm0-11.94a5.52,5.52,0,1,0,5.52,5.52A5.53,5.53,0,0,0,307.93,22.63Z"/><path class="cls-1" d="M307.93,41.21A13.06,13.06,0,1,1,321,28.15,13.08,13.08,0,0,1,307.93,41.21Zm0-25.21a12.15,12.15,0,1,0,12.15,12.15A12.16,12.16,0,0,0,307.93,16Z"/><rect class="cls-1" x="320.53" y="27.7" width="21.17" height="0.9"/><rect class="cls-1" x="276.53" y="27.7" width="18.8" height="0.9"/><polygon class="cls-1" points="278.75 6.37 277.85 6.37 277.85 0.5 294.67 0.5 294.67 6.37 293.77 6.37 293.77 1.4 278.75 1.4 278.75 6.37"/><path class="cls-1" d="M284.86,51.56l-.28-.36L250.24,7.05,255.83,3l.27.33L290.88,46.8ZM251.52,7.23,285,50.29l4.59-3.64L255.66,4.22Z"/><path class="cls-1" d="M251.94,6.86l-2-2,3.65-2.81,1.63,2.29ZM251.34,5l.69.68,2-1.49-.57-.81Z"/><polygon class="cls-1" points="293.07 59.05 285.14 50.82 285.79 50.19 293.15 57.83 294.73 56.58 288.98 47.63 289.74 47.14 295.93 56.77 293.07 59.05"/><rect class="cls-1" x="291.03" y="55.27" width="3.24" height="0.45" transform="translate(24.12 184.38) rotate(-36.38)"/><polygon class="cls-1" points="294.44 57.34 295.55 58.88 295.1 59.11 294 57.78 294.44 57.34"/><rect class="cls-1" x="296.87" y="59.76" width="20.79" height="0.9"/><polygon class="cls-1" points="779.21 622.5 728.79 622.5 728.79 621.6 778.31 621.6 778.31 580.71 710.89 580.71 710.89 597.95 709.98 597.95 709.98 579.81 779.21 579.81 779.21 622.5"/><polygon class="cls-1" points="718.39 622.5 709.98 622.5 709.98 611.22 710.89 611.22 710.89 621.6 718.39 621.6 718.39 622.5"/><path class="cls-1" d="M744.93,608.57a6.42,6.42,0,1,1,6.42-6.42A6.43,6.43,0,0,1,744.93,608.57Zm0-11.94a5.52,5.52,0,1,0,5.52,5.52A5.53,5.53,0,0,0,744.93,596.63Z"/><path class="cls-1" d="M744.93,615.21A13.06,13.06,0,1,1,758,602.15,13.08,13.08,0,0,1,744.93,615.21Zm0-25.21a12.15,12.15,0,1,0,12.15,12.15A12.16,12.16,0,0,0,744.93,590Z"/><rect class="cls-1" x="757.53" y="601.7" width="21.17" height="0.9"/><rect class="cls-1" x="713.53" y="601.7" width="18.8" height="0.9"/><polygon class="cls-1" points="715.75 580.37 714.85 580.37 714.85 574.5 731.67 574.5 731.67 580.37 730.77 580.37 730.77 575.4 715.75 575.4 715.75 580.37"/><path class="cls-1" d="M721.86,625.56l-.28-.36-34.34-44.15,5.59-4.06.27.33,34.78,43.48Zm-33.34-44.33L722,624.29l4.59-3.64-33.94-42.43Z"/><path class="cls-1" d="M688.94,580.86l-2-2,3.65-2.81,1.63,2.29Zm-.6-1.88.69.68,2-1.49-.57-.81Z"/><polygon class="cls-1" points="730.08 633.05 722.14 624.82 722.79 624.19 730.15 631.83 731.73 630.58 725.98 621.63 726.74 621.14 732.93 630.77 730.08 633.05"/><rect class="cls-1" x="728.03" y="629.27" width="3.24" height="0.45" transform="translate(-231.17 555.42) rotate(-36.38)"/><polygon class="cls-1" points="731.44 631.34 732.55 632.88 732.1 633.11 731 631.78 731.44 631.34"/><rect class="cls-1" x="733.87" y="633.76" width="20.79" height="0.9"/><polygon class="cls-1" points="1493.21 957.5 1442.79 957.5 1442.79 956.6 1492.31 956.6 1492.31 915.71 1424.89 915.71 1424.89 932.95 1423.98 932.95 1423.98 914.81 1493.21 914.81 1493.21 957.5"/><polygon class="cls-1" points="1432.39 957.5 1423.98 957.5 1423.98 946.22 1424.89 946.22 1424.89 956.6 1432.39 956.6 1432.39 957.5"/><path class="cls-1" d="M1458.93,943.57a6.42,6.42,0,1,1,6.42-6.42A6.43,6.43,0,0,1,1458.93,943.57Zm0-11.94a5.52,5.52,0,1,0,5.52,5.52A5.53,5.53,0,0,0,1458.93,931.63Z"/><path class="cls-1" d="M1458.93,950.21a13.06,13.06,0,1,1,13-13.06A13.08,13.08,0,0,1,1458.93,950.21Zm0-25.21a12.15,12.15,0,1,0,12.15,12.15A12.16,12.16,0,0,0,1458.93,925Z"/><rect class="cls-1" x="1471.53" y="936.7" width="21.17" height="0.9"/><rect class="cls-1" x="1427.53" y="936.7" width="18.8" height="0.9"/><polygon class="cls-1" points="1429.75 915.37 1428.85 915.37 1428.85 909.5 1445.67 909.5 1445.67 915.37 1444.77 915.37 1444.77 910.4 1429.75 910.4 1429.75 915.37"/><path class="cls-1" d="M1435.86,960.56l-.28-.36-34.34-44.15,5.59-4.06.27.33,34.78,43.48Zm-33.34-44.33L1436,959.29l4.59-3.64-33.94-42.43Z"/><path class="cls-1" d="M1402.94,915.86l-2-2,3.65-2.81,1.63,2.29Zm-.6-1.88.69.68,2-1.49-.57-.81Z"/><polygon class="cls-1" points="1444.08 968.05 1436.14 959.82 1436.79 959.19 1444.15 966.83 1445.72 965.58 1439.97 956.63 1440.73 956.14 1446.93 965.77 1444.08 968.05"/><rect class="cls-1" x="1442.03" y="964.27" width="3.24" height="0.45" transform="translate(-290.72 1044.18) rotate(-36.38)"/><polygon class="cls-1" points="1445.44 966.34 1446.55 967.88 1446.1 968.11 1445 966.78 1445.44 966.34"/><rect class="cls-1" x="1447.87" y="968.76" width="20.79" height="0.9"/><rect class="cls-1" x="838.39" y="29.25" width="20.34" height="1.57"/><rect class="cls-1" x="838.2" y="35.01" width="20.34" height="1.57"/><path class="cls-1" d="M806.55,98.76h-43V27.33h43Zm-41.46-1.57H805V28.9H765.09Z"/><path class="cls-1" d="M831.11,45.79H812.65V27.33h18.46Zm-16.89-1.57h15.32V28.9H814.22Z"/><path class="cls-1" d="M831.11,72.28H812.65V53.82h18.46Zm-16.89-1.57h15.32V55.39H814.22Z"/><path class="cls-1" d="M831.11,98.76H812.65V80.3h18.46Zm-16.89-1.57h15.32V81.87H814.22Z"/><rect class="cls-1" x="838.2" y="40.77" width="20.34" height="1.57"/><rect class="cls-1" x="838.39" y="55.74" width="20.34" height="1.57"/><rect class="cls-1" x="838.2" y="61.5" width="20.34" height="1.57"/><rect class="cls-1" x="838.2" y="67.25" width="20.34" height="1.57"/><rect class="cls-1" x="838.77" y="82.22" width="20.34" height="1.57"/><rect class="cls-1" x="838.58" y="87.98" width="20.34" height="1.57"/><rect class="cls-1" x="838.58" y="93.74" width="20.34" height="1.57"/><rect class="cls-1" x="1237.39" y="509.25" width="20.34" height="1.57"/><rect class="cls-1" x="1237.2" y="515.01" width="20.34" height="1.57"/><path class="cls-1" d="M1205.55,578.76h-43V507.33h43Zm-41.46-1.57H1204V508.9h-39.89Z"/><path class="cls-1" d="M1230.11,525.79h-18.46V507.33h18.46Zm-16.89-1.57h15.32V508.9h-15.32Z"/><path class="cls-1" d="M1230.11,552.28h-18.46V533.82h18.46Zm-16.89-1.57h15.32V535.39h-15.32Z"/><path class="cls-1" d="M1230.11,578.76h-18.46V560.3h18.46Zm-16.89-1.57h15.32V561.87h-15.32Z"/><rect class="cls-1" x="1237.2" y="520.77" width="20.34" height="1.57"/><rect class="cls-1" x="1237.39" y="535.74" width="20.34" height="1.57"/><rect class="cls-1" x="1237.2" y="541.5" width="20.34" height="1.57"/><rect class="cls-1" x="1237.2" y="547.25" width="20.34" height="1.57"/><rect class="cls-1" x="1237.77" y="562.22" width="20.34" height="1.57"/><rect class="cls-1" x="1237.58" y="567.98" width="20.34" height="1.57"/><rect class="cls-1" x="1237.58" y="573.74" width="20.34" height="1.57"/><path class="cls-1" d="M79.11,585.25H.5V532.18H36.13v12.53h43Zm-77.61-1H78.11V545.71h-43V533.19H1.5Z"/><path class="cls-1" d="M78.13,545.21h-1v-5.54c-16.07-.23-40-.43-41.3,0l.06,0-.52-.85c1-.61,29.89-.26,42.27-.08h.49Z"/><path class="cls-1" d="M1072.11,346.25H993.5V293.18h35.63v12.53h43Zm-77.61-1h76.61V306.71h-43V294.19H994.5Z"/><path class="cls-1" d="M1071.13,306.21h-1v-5.54c-16.07-.23-40-.43-41.3,0l.06,0-.52-.85c1-.61,29.89-.26,42.27-.08h.49Z"/><path class="cls-1" d="M1076.11,921.25H997.5V868.18h35.63v12.53h43Zm-77.61-1h76.61V881.71h-43V869.19H998.5Z"/><path class="cls-1" d="M1075.13,881.21h-1v-5.54c-16.07-.23-40-.43-41.3,0l.06,0-.52-.85c1-.61,29.89-.26,42.27-.08h.49Z"/><path class="cls-1" d="M134.76,887.66l-22.85-22.85,9-8.95,22.86,22.85Zm-21.83-22.85,21.83,21.84,7.94-7.94-21.84-21.84Z"/><rect class="cls-1" x="115.59" y="865.16" width="11.95" height="0.72" transform="translate(-565.36 325.12) rotate(-43.81)"/><path class="cls-1" d="M96.54,866a23.67,23.67,0,1,1,19.84-10.76l3.06,3-4.94,4.94-.51-.51.26.25-.28.23c0-.05-.37-.39-2.5-2.51A23.67,23.67,0,0,1,96.54,866Zm0-46.63a23,23,0,1,0,14.72,40.56l.25-.21.23.23c1.44,1.42,2.15,2.13,2.51,2.51l4.17-4.17-3-3,.16-.25a23,23,0,0,0-19.08-35.71Z"/><path class="cls-1" d="M96.54,862.75A20.42,20.42,0,1,1,117,842.34,20.44,20.44,0,0,1,96.54,862.75Zm0-40.11a19.7,19.7,0,1,0,19.7,19.7A19.72,19.72,0,0,0,96.54,822.64Z"/><path class="cls-1" d="M400.76,335.66l-22.85-22.85,8.95-8.95,22.86,22.85Zm-21.83-22.85,21.83,21.84,7.94-7.94-21.84-21.84Z"/><rect class="cls-1" x="381.59" y="313.16" width="11.95" height="0.72" transform="translate(-109.15 355.6) rotate(-43.81)"/><path class="cls-1" d="M362.54,314a23.67,23.67,0,1,1,19.84-10.76l3.06,3.05-4.94,4.94-.51-.51.26.25-.28.23c-.05,0-.37-.39-2.5-2.51A23.67,23.67,0,0,1,362.54,314Zm0-46.63a23,23,0,1,0,14.72,40.56l.25-.21.23.23c1.44,1.42,2.15,2.13,2.51,2.51l4.17-4.17-3-3,.16-.25a23,23,0,0,0-19.08-35.71Z"/><path class="cls-1" d="M362.54,310.75A20.42,20.42,0,1,1,383,290.34,20.44,20.44,0,0,1,362.54,310.75Zm0-40.11a19.7,19.7,0,1,0,19.7,19.7A19.72,19.72,0,0,0,362.54,270.64Z"/><path class="cls-1" d="M1476.76,105.66l-22.85-22.85,8.95-9,22.86,22.85Zm-21.83-22.85,21.83,21.84,7.94-7.94-21.84-21.84Z"/><rect class="cls-1" x="1457.59" y="83.16" width="11.95" height="0.72" transform="translate(349.64 1036.49) rotate(-43.81)"/><path class="cls-1" d="M1438.54,84a23.67,23.67,0,1,1,19.84-10.76l3.06,3-4.94,4.94-.51-.51.26.25-.28.23s-.37-.39-2.5-2.51A23.67,23.67,0,0,1,1438.54,84Zm0-46.63a23,23,0,1,0,14.72,40.56l.25-.21.23.23c1.44,1.42,2.15,2.13,2.51,2.51l4.17-4.17-3-3,.16-.25a23,23,0,0,0-19.08-35.71Z"/><path class="cls-1" d="M1438.54,80.75A20.42,20.42,0,1,1,1459,60.34,20.44,20.44,0,0,1,1438.54,80.75Zm0-40.11a19.7,19.7,0,1,0,19.7,19.7A19.72,19.72,0,0,0,1438.54,40.64Z"/><path class="cls-1" d="M1680.76,577.66l-22.85-22.85,8.95-8.95,22.86,22.85Zm-21.83-22.85,21.83,21.84,7.94-7.94-21.84-21.84Z"/><rect class="cls-1" x="1661.59" y="555.16" width="11.95" height="0.72" transform="translate(79.66 1309.12) rotate(-43.81)"/><path class="cls-1" d="M1642.54,556a23.67,23.67,0,1,1,19.84-10.76l3.06,3-4.94,4.94-.51-.51.26.25-.28.23c0-.05-.37-.39-2.5-2.51A23.67,23.67,0,0,1,1642.54,556Zm0-46.63a23,23,0,1,0,14.72,40.56l.25-.21.23.23c1.44,1.42,2.15,2.13,2.51,2.51l4.17-4.17-3-3,.16-.25a23,23,0,0,0-19.08-35.71Z"/><path class="cls-1" d="M1642.54,552.75A20.42,20.42,0,1,1,1663,532.34,20.44,20.44,0,0,1,1642.54,552.75Zm0-40.11a19.7,19.7,0,1,0,19.7,19.7A19.72,19.72,0,0,0,1642.54,512.64Z"/><path class="cls-1" d="M1394.17,396.14h-.27c-14.22-.09-27.56-7.42-39.63-21.79h0c-.25-.3-.51-.61,1.53-3.09a49.5,49.5,0,0,1,5-5.17c5.1-4.58,15.74-12.44,29.81-13.53,15.64-1.22,31.16,6,46.14,21.58l.37.38-.34.4C1436.58,375.14,1418.19,396.14,1394.17,396.14Zm-38.8-22.3c11.78,13.93,24.75,21,38.53,21.13,21.82.13,39-17.52,41.63-20.41-16.82-17.27-34.12-23.93-51.45-19.79C1367,358.85,1356.46,372,1355.37,373.84Z"/><path class="cls-1" d="M1394.49,387.15A13.14,13.14,0,1,1,1407.62,374,13.16,13.16,0,0,1,1394.49,387.15Zm0-25.11a12,12,0,1,0,12,12A12,12,0,0,0,1394.49,362Z"/><path class="cls-1" d="M1394.49,383.08a9.07,9.07,0,1,1,9.07-9.07A9.08,9.08,0,0,1,1394.49,383.08Zm0-17a7.91,7.91,0,1,0,7.9,7.91A7.92,7.92,0,0,0,1394.49,366.1Z"/><rect class="cls-1" x="1361.98" y="347.72" width="1.17" height="12.27" transform="translate(48.13 857.9) rotate(-35.54)"/><rect class="cls-1" x="1376.53" y="339.07" width="1.17" height="12.46" transform="translate(-34.8 494.17) rotate(-20.1)"/><rect class="cls-1" x="1393.8" y="336.02" width="1.17" height="11.7"/><rect class="cls-1" x="1405.89" y="344.71" width="12.36" height="1.17" transform="matrix(0.32, -0.95, 0.95, 0.32, 628.86, 1569.94)"/><rect class="cls-1" x="1421.14" y="353.27" width="12.97" height="1.17" transform="translate(244.18 1227.24) rotate(-50.35)"/><path class="cls-1" d="M1657.17,872.14h-.27c-14.22-.09-27.56-7.42-39.63-21.79h0c-.25-.3-.51-.61,1.53-3.09a49.5,49.5,0,0,1,5-5.17c5.1-4.58,15.74-12.44,29.81-13.53,15.64-1.22,31.16,6,46.14,21.58l.37.38-.34.4C1699.58,851.14,1681.19,872.14,1657.17,872.14Zm-38.8-22.3c11.78,13.93,24.75,21,38.53,21.13,21.82.13,39-17.52,41.63-20.41-16.82-17.27-34.12-23.93-51.45-19.79C1630,834.85,1619.46,848,1618.37,849.84Z"/><path class="cls-1" d="M1657.49,863.15A13.14,13.14,0,1,1,1670.62,850,13.16,13.16,0,0,1,1657.49,863.15Zm0-25.11a12,12,0,1,0,12,12A12,12,0,0,0,1657.49,838Z"/><path class="cls-1" d="M1657.49,859.08a9.07,9.07,0,1,1,9.07-9.07A9.08,9.08,0,0,1,1657.49,859.08Zm0-17a7.91,7.91,0,1,0,7.9,7.91A7.92,7.92,0,0,0,1657.49,842.1Z"/><rect class="cls-1" x="1624.98" y="823.72" width="1.17" height="12.27" transform="translate(-179.55 1099.44) rotate(-35.54)"/><rect class="cls-1" x="1639.53" y="815.07" width="1.17" height="12.46" transform="translate(-182.34 613.51) rotate(-20.1)"/><rect class="cls-1" x="1656.8" y="812.02" width="1.17" height="11.7"/><rect class="cls-1" x="1668.89" y="820.71" width="12.36" height="1.17" transform="matrix(0.32, -0.95, 0.95, 0.32, 356.4, 2140.95)"/><rect class="cls-1" x="1684.14" y="829.27" width="12.97" height="1.17" transform="translate(-27.13 1601.99) rotate(-50.35)"/><path class="cls-1" d="M496.17,769.14h-.27c-14.22-.09-27.56-7.42-39.63-21.79h0c-.25-.3-.51-.61,1.53-3.09a49.5,49.5,0,0,1,5-5.17c5.1-4.58,15.74-12.44,29.81-13.53,15.64-1.22,31.16,6,46.14,21.58l.37.38-.34.4C538.58,748.14,520.19,769.14,496.17,769.14Zm-38.8-22.3c11.78,13.93,24.75,21,38.53,21.13,21.82.13,39-17.52,41.63-20.41-16.82-17.27-34.12-23.93-51.45-19.79C469,731.85,458.46,745,457.37,746.84Z"/><path class="cls-1" d="M496.49,760.15A13.14,13.14,0,1,1,509.62,747,13.16,13.16,0,0,1,496.49,760.15Zm0-25.11a12,12,0,1,0,12,12A12,12,0,0,0,496.49,735Z"/><path class="cls-1" d="M496.49,756.08a9.07,9.07,0,1,1,9.07-9.07A9.08,9.08,0,0,1,496.49,756.08Zm0-17a7.91,7.91,0,1,0,7.9,7.91A7.92,7.92,0,0,0,496.49,739.1Z"/><rect class="cls-1" x="463.98" y="720.72" width="1.17" height="12.27" transform="translate(-335.95 405.42) rotate(-35.54)"/><rect class="cls-1" x="478.53" y="712.07" width="1.17" height="12.46" transform="translate(-217.62 208.34) rotate(-20.1)"/><rect class="cls-1" x="495.8" y="709.02" width="1.17" height="11.7"/><rect class="cls-1" x="507.89" y="717.71" width="12.36" height="1.17" transform="translate(-331.84 972.58) rotate(-71.14)"/><rect class="cls-1" x="523.14" y="726.27" width="12.97" height="1.17" transform="translate(-367.97 670.81) rotate(-50.35)"/><path class="cls-1" d="M110.17,136.14h-.27c-14.22-.09-27.56-7.42-39.63-21.79h0c-.25-.3-.51-.61,1.53-3.09a49.5,49.5,0,0,1,5-5.17c5.1-4.58,15.74-12.44,29.81-13.53,15.64-1.22,31.16,6,46.14,21.58l.37.38-.34.4C152.58,115.14,134.19,136.14,110.17,136.14Zm-38.8-22.3c11.78,13.93,24.75,21,38.53,21.13,21.82.13,39-17.52,41.63-20.41-16.82-17.27-34.12-23.93-51.45-19.79C83,98.85,72.46,112,71.37,113.84Z"/><path class="cls-1" d="M110.49,127.15A13.14,13.14,0,1,1,123.62,114,13.16,13.16,0,0,1,110.49,127.15Zm0-25.11a12,12,0,1,0,12,12A12,12,0,0,0,110.49,102Z"/><path class="cls-1" d="M110.49,123.08a9.07,9.07,0,1,1,9.07-9.07A9.08,9.08,0,0,1,110.49,123.08Zm0-17a7.91,7.91,0,1,0,7.9,7.91A7.92,7.92,0,0,0,110.49,106.1Z"/><rect class="cls-1" x="77.98" y="87.72" width="1.17" height="12.27" transform="translate(-39.92 63.15) rotate(-35.54)"/><rect class="cls-1" x="92.53" y="79.07" width="1.17" height="12.46" transform="translate(-23.64 37.19) rotate(-20.1)"/><rect class="cls-1" x="109.8" y="76.02" width="1.17" height="11.7"/><rect class="cls-1" x="121.89" y="84.71" width="12.36" height="1.17" transform="translate(5.96 178.92) rotate(-71.14)"/><rect class="cls-1" x="137.14" y="93.27" width="12.97" height="1.17" transform="translate(-20.29 144.55) rotate(-50.35)"/><rect class="cls-1" x="233.62" y="680.31" width="32.98" height="0.43"/><path class="cls-1" d="M236.29,681l3.56-33.24h19.67L263.93,681Zm4.33-32.38-3.37,31.52,25.7,0-4.18-31.49Z"/><path class="cls-1" d="M263.14,648.6H237.07v-5.69h26.07Zm-25.21-.86h24.35v-4H237.93Z"/><path class="cls-1" d="M240.25,643.38c-1.51-4.1-4.45-12-4.78-12.67-.16-.32-.36-.73,6.47-12.9,3.33-5.92,6.75-11.82,6.78-11.88l.36-.61,15.4,24.09-4.51,14-.81-.26,4.38-13.57L249.11,607c-5,8.61-12.52,22-12.82,23.45.61,1.38,4.59,12.19,4.77,12.66Z"/><path class="cls-1" d="M249.09,630.11a5.05,5.05,0,0,1-.51-10.08c-.05-3.81.08-13.78.08-13.89h.86V620a5.05,5.05,0,0,1-.43,10.09Zm0-9.25H249a3.85,3.85,0,1,0,.1,0Z"/><path class="cls-1" d="M295.11,681.79H276V599.84h19.13Zm-18.27-.86h17.42V600.69H276.84Z"/><rect class="cls-1" x="286.28" y="671.27" width="8.4" height="0.86"/><rect class="cls-1" x="288.91" y="663.69" width="5.67" height="0.86"/><rect class="cls-1" x="288.91" y="647.32" width="5.67" height="0.86"/><rect class="cls-1" x="288.91" y="631.35" width="5.67" height="0.86"/><rect class="cls-1" x="288.91" y="615.17" width="5.67" height="0.86"/><rect class="cls-1" x="286.18" y="655.3" width="8.4" height="0.86"/><rect class="cls-1" x="286.18" y="639.33" width="8.4" height="0.86"/><rect class="cls-1" x="286.18" y="623.37" width="8.4" height="0.86"/><rect class="cls-1" x="286.18" y="606.98" width="8.4" height="0.86"/><rect class="cls-1" x="473.62" y="141.31" width="32.98" height="0.43"/><path class="cls-1" d="M476.29,142l3.56-33.24h19.67L503.93,142Zm4.33-32.38-3.37,31.52,25.7,0-4.18-31.49Z"/><path class="cls-1" d="M503.14,109.6H477.07v-5.69h26.07Zm-25.21-.86h24.35v-4H477.93Z"/><path class="cls-1" d="M480.25,104.38c-1.51-4.1-4.45-12-4.78-12.67-.16-.32-.36-.73,6.47-12.9,3.33-5.92,6.75-11.82,6.78-11.88l.36-.61,15.4,24.09-4.51,14-.81-.26,4.38-13.57L489.11,68c-5,8.61-12.52,22-12.82,23.45.61,1.38,4.59,12.19,4.77,12.66Z"/><path class="cls-1" d="M489.09,91.11A5.05,5.05,0,0,1,488.58,81c-.05-3.81.08-13.78.08-13.89h.86V81a5.05,5.05,0,0,1-.43,10.09Zm0-9.25H489a3.85,3.85,0,1,0,.1,0Z"/><path class="cls-1" d="M535.11,142.79H516V60.84h19.13Zm-18.27-.86h17.42V61.69H516.84Z"/><rect class="cls-1" x="526.28" y="132.27" width="8.4" height="0.86"/><rect class="cls-1" x="528.91" y="124.69" width="5.67" height="0.86"/><rect class="cls-1" x="528.91" y="108.32" width="5.67" height="0.86"/><rect class="cls-1" x="528.91" y="92.35" width="5.67" height="0.86"/><rect class="cls-1" x="528.91" y="76.17" width="5.67" height="0.86"/><rect class="cls-1" x="526.18" y="116.3" width="8.4" height="0.86"/><rect class="cls-1" x="526.18" y="100.33" width="8.4" height="0.86"/><rect class="cls-1" x="526.18" y="84.37" width="8.4" height="0.86"/><rect class="cls-1" x="526.18" y="67.98" width="8.4" height="0.86"/><rect class="cls-1" x="1204.62" y="835.31" width="32.98" height="0.43"/><path class="cls-1" d="M1207.29,836l3.56-33.24h19.67l4.41,33.21Zm4.33-32.38-3.37,31.52,25.7,0-4.18-31.49Z"/><path class="cls-1" d="M1234.14,803.6h-26.07v-5.69h26.07Zm-25.21-.86h24.35v-4h-24.35Z"/><path class="cls-1" d="M1211.25,798.38c-1.51-4.1-4.45-12-4.78-12.67-.16-.32-.36-.73,6.47-12.9,3.33-5.92,6.75-11.82,6.78-11.88l.36-.61,15.4,24.09-4.51,14-.81-.26,4.38-13.57L1220.11,762c-5,8.61-12.52,22-12.82,23.45.61,1.38,4.59,12.19,4.77,12.66Z"/><path class="cls-1" d="M1220.09,785.11a5.05,5.05,0,0,1-.51-10.08c0-3.81.08-13.78.08-13.89h.86V775a5.05,5.05,0,0,1-.43,10.09Zm0-9.25h-.1a3.85,3.85,0,1,0,.1,0Z"/><path class="cls-1" d="M1266.11,836.79H1247V754.84h19.13Zm-18.27-.86h17.42V755.69h-17.42Z"/><rect class="cls-1" x="1257.28" y="826.27" width="8.4" height="0.86"/><rect class="cls-1" x="1259.91" y="818.69" width="5.67" height="0.86"/><rect class="cls-1" x="1259.91" y="802.32" width="5.67" height="0.86"/><rect class="cls-1" x="1259.91" y="786.35" width="5.67" height="0.86"/><rect class="cls-1" x="1259.91" y="770.17" width="5.67" height="0.86"/><rect class="cls-1" x="1257.18" y="810.3" width="8.4" height="0.86"/><rect class="cls-1" x="1257.18" y="794.33" width="8.4" height="0.86"/><rect class="cls-1" x="1257.18" y="778.37" width="8.4" height="0.86"/><rect class="cls-1" x="1257.18" y="761.98" width="8.4" height="0.86"/><rect class="cls-1" x="1625.62" y="301.31" width="32.98" height="0.43"/><path class="cls-1" d="M1628.29,302l3.56-33.24h19.67l4.41,33.21Zm4.33-32.38-3.37,31.52,25.7,0-4.18-31.49Z"/><path class="cls-1" d="M1655.14,269.6h-26.07v-5.69h26.07Zm-25.21-.86h24.35v-4h-24.35Z"/><path class="cls-1" d="M1632.25,264.38c-1.51-4.1-4.45-12-4.78-12.67-.16-.32-.36-.73,6.47-12.9,3.33-5.92,6.75-11.82,6.78-11.88l.36-.61,15.4,24.09-4.51,14-.81-.26,4.38-13.57L1641.11,228c-5,8.61-12.52,22-12.82,23.45.61,1.38,4.59,12.19,4.77,12.66Z"/><path class="cls-1" d="M1641.09,251.11a5.05,5.05,0,0,1-.51-10.08c0-3.81.08-13.78.08-13.89h.86V241a5.05,5.05,0,0,1-.43,10.09Zm0-9.25h-.1a3.85,3.85,0,1,0,.1,0Z"/><path class="cls-1" d="M1687.11,302.79H1668v-82h19.13Zm-18.27-.86h17.42V221.69h-17.42Z"/><rect class="cls-1" x="1678.28" y="292.27" width="8.4" height="0.86"/><rect class="cls-1" x="1680.91" y="284.69" width="5.67" height="0.86"/><rect class="cls-1" x="1680.91" y="268.32" width="5.67" height="0.86"/><rect class="cls-1" x="1680.91" y="252.35" width="5.67" height="0.86"/><rect class="cls-1" x="1680.91" y="236.17" width="5.67" height="0.86"/><rect class="cls-1" x="1678.18" y="276.3" width="8.4" height="0.86"/><rect class="cls-1" x="1678.18" y="260.33" width="8.4" height="0.86"/><rect class="cls-1" x="1678.18" y="244.37" width="8.4" height="0.86"/><rect class="cls-1" x="1678.18" y="227.98" width="8.4" height="0.86"/><path class="cls-1" d="M358.32,946.12,353,944.66l12.17-44.08L370.5,902Zm-3.57-2.44,2.6.72L368.78,903l-2.6-.72Z"/><path class="cls-1" d="M378.09,944.52l-3.41-2.88,17.18-20.26-20.06-17,2.88-3.41,23.43,19.87-.19.22h0l-.42.56Zm-1.44-3,1.28,1.09L396.17,921l-21.32-18.08-1.09,1.27,20.06,17Z"/><path class="cls-1" d="M346.47,944.52,326.6,921.09l0,0-.2-.22L349.88,901l2.88,3.41-20.06,17,17.17,20.26Zm-17.9-23.27,18.06,21.31,1.28-1.09-17.17-20.25,20.06-17-1.09-1.27L328.41,921l.19.23Z"/><path class="cls-1" d="M535.32,504.12,530,502.66l12.17-44.08L547.5,460Zm-3.57-2.44,2.6.72L545.78,461l-2.6-.72Z"/><path class="cls-1" d="M555.09,502.52l-3.41-2.88,17.18-20.26-20.06-17,2.88-3.41,23.43,19.87-.19.22h0l-.42.56Zm-1.44-3,1.28,1.09L573.17,479l-21.32-18.08-1.09,1.27,20.06,17Z"/><path class="cls-1" d="M523.47,502.52,503.6,479.09l0,0-.2-.22L526.88,459l2.88,3.41-20.06,17,17.17,20.26Zm-17.9-23.27,18.06,21.31,1.28-1.09-17.17-20.25,20.06-17-1.09-1.27L505.41,479l.19.23Z"/><path class="cls-1" d="M1451.32,654.12l-5.28-1.46,12.17-44.08,5.29,1.46Zm-3.57-2.44,2.6.72L1461.78,611l-2.6-.72Z"/><path class="cls-1" d="M1471.09,652.52l-3.41-2.88,17.18-20.26-20.06-17,2.88-3.41,23.43,19.87-.19.22h0l-.42.56Zm-1.44-3,1.28,1.09L1489.17,629l-21.32-18.08-1.09,1.27,20.06,17Z"/><path class="cls-1" d="M1439.47,652.52l-19.87-23.43,0,0-.2-.22L1442.88,609l2.88,3.41-20.06,17,17.17,20.26Zm-17.9-23.27,18.06,21.31,1.28-1.09-17.17-20.25,20.06-17-1.09-1.27L1421.41,629l.19.23Z"/><polygon class="cls-1" points="928.9 652.56 928.9 613.64 967.85 613.64 967.85 623.44 966.94 623.44 966.94 614.55 929.81 614.55 929.81 650.37 937.96 642.22 954.05 642.22 954.05 643.13 938.33 643.13 928.9 652.56"/><path class="cls-1" d="M1002.76,673.91l-.29-.11c-.12,0-.2-.09-.26-.34-.57-.92-7.62-7.74-12.09-12-11.83-.21-29.58-.39-31.15-.06l-.15.15-.3-.12c-.4-.17-.6-.25-.46-17.41.07-8.33.2-16.74.21-16.83v-.45h44.84v.46c-.09,12.2-.27,43.86,0,46a.35.35,0,0,1,0,.17v.19Zm-34.49-13.59c4.71,0,11.69.07,22,.25h.18l.13.12c7.09,6.72,10.15,9.81,11.48,11.26,0-1.1,0-2.89-.05-5.85,0-3.84,0-9.17,0-15.87,0-10.1.11-20.31.12-22.57h-43c-.2,12.24-.37,30.11-.11,32.87C960,660.43,962.32,660.32,968.27,660.32Z"/><path class="cls-1" d="M970.73,647.47a3.13,3.13,0,1,1,3.13-3.12A3.12,3.12,0,0,1,970.73,647.47Zm0-5.34a2.22,2.22,0,1,0,2.22,2.22A2.22,2.22,0,0,0,970.73,642.13Z"/><path class="cls-1" d="M980.52,647.47a3.13,3.13,0,1,1,3.12-3.12A3.13,3.13,0,0,1,980.52,647.47Zm0-5.34a2.22,2.22,0,1,0,2.21,2.22A2.23,2.23,0,0,0,980.52,642.13Z"/><path class="cls-1" d="M990.31,647.69a3.13,3.13,0,1,1,3.12-3.12A3.13,3.13,0,0,1,990.31,647.69Zm0-5.34a2.22,2.22,0,1,0,2.21,2.22A2.22,2.22,0,0,0,990.31,642.35Z"/><polygon class="cls-1" points="659.9 322.56 659.9 283.64 698.85 283.64 698.85 293.44 697.94 293.44 697.94 284.55 660.81 284.55 660.81 320.37 668.96 312.22 685.05 312.22 685.05 313.13 669.33 313.13 659.9 322.56"/><path class="cls-1" d="M733.76,343.91l-.29-.11c-.12-.05-.2-.09-.26-.34-.57-.92-7.62-7.74-12.09-12-11.83-.21-29.58-.39-31.15-.06l-.15.15-.3-.12c-.4-.17-.6-.25-.46-17.41.07-8.33.2-16.74.21-16.83v-.45h44.84v.46c-.09,12.2-.27,43.86,0,46a.35.35,0,0,1,0,.17v.19Zm-34.49-13.59c4.71,0,11.69.07,22,.25h.18l.13.12c7.09,6.72,10.15,9.81,11.48,11.26,0-1.1,0-2.89-.05-5.85,0-3.84,0-9.17,0-15.87,0-10.1.11-20.31.12-22.57h-43c-.2,12.24-.37,30.11-.11,32.87C691,330.43,693.32,330.32,699.27,330.32Z"/><path class="cls-1" d="M701.73,317.47a3.13,3.13,0,1,1,3.13-3.12A3.12,3.12,0,0,1,701.73,317.47Zm0-5.34a2.22,2.22,0,1,0,2.22,2.22A2.22,2.22,0,0,0,701.73,312.13Z"/><path class="cls-1" d="M711.52,317.47a3.13,3.13,0,1,1,3.12-3.12A3.13,3.13,0,0,1,711.52,317.47Zm0-5.34a2.22,2.22,0,1,0,2.21,2.22A2.23,2.23,0,0,0,711.52,312.13Z"/><path class="cls-1" d="M721.31,317.69a3.13,3.13,0,1,1,3.12-3.12A3.13,3.13,0,0,1,721.31,317.69Zm0-5.34a2.22,2.22,0,1,0,2.21,2.22A2.22,2.22,0,0,0,721.31,312.35Z"/></g></g></svg>